<?xml version="1.0" encoding="UTF-8"?> <svg xmlns="http://www.w3.org/2000/svg" xmlns:xlink="http://www.w3.org/1999/xlink" width="173px" height="77px" viewBox="0 0 173 77"><!-- Generator: Sketch 53.2 (72643) - https://sketchapp.com --><title>weconnect_logo</title><desc>Created with Sketch.</desc><g id="weconnect_logo" stroke="none" stroke-width="1" fill="none" fill-rule="evenodd"><path d="M84,2.5 L84,74.5" id="Line" stroke="#FF9328" stroke-linecap="square"></path><path d="M45.0848427,75.5338212 L44.7893982,75.0676425 L45.4740692,74.3716582 C46.2363372,73.5967897 46.3774847,73.5507245 46.7449232,73.9569094 C46.9897002,74.2275063 46.9686857,74.2715036 46.1898102,75.1190789 L45.3802872,76 L45.0848427,75.5338212 Z M18.7922907,74.5291472 L18.0710247,73.6422566 L18.4261327,73.3713735 L18.7812407,73.1004904 L19.5112167,73.8270634 C20.2386447,74.5510873 20.2403477,74.555028 19.9987947,74.9533055 C19.8654667,75.1731228 19.7017512,75.3671635 19.6349702,75.3845062 C19.5681892,75.4018489 19.1889857,75.0169344 18.7922907,74.5291472 L18.7922907,74.5291472 Z M44.7783547,73.8954588 C45.1341192,73.5328096 45.5250097,73.2360978 45.6470017,73.2360978 C45.8793832,73.2360978 44.5162227,74.5368139 44.2718552,74.5482456 C44.1946677,74.5518221 44.4225967,74.2581015 44.7783547,73.8954588 L44.7783547,73.8954588 Z M19.9496157,73.3792483 C19.5547277,72.9781616 19.2978217,72.6500027 19.3787142,72.6500027 C19.5690797,72.6500027 20.8365017,73.9395081 20.7405227,74.0355335 C20.7004112,74.0756552 20.3445037,73.7803285 19.9496157,73.3792483 Z M43.1960012,73.3390161 C42.9385362,73.0732701 42.7278777,72.8108666 42.7278777,72.7558992 C42.7278777,72.6003936 43.8535022,72.0639141 44.1797827,72.0639141 C44.5215722,72.0639141 45.2177482,72.3591238 45.2177482,72.504069 C45.2177482,72.6010829 43.8292702,73.8221929 43.7189587,73.8221929 C43.6887987,73.8221929 43.4534662,73.6047685 43.1960012,73.3390161 L43.1960012,73.3390161 Z M20.5754097,72.7118109 C20.1927742,72.3466061 19.8797082,72.026452 19.8797082,72.0003697 C19.8797082,71.9742809 20.0778282,71.8708424 20.3199727,71.7704992 C20.8727522,71.5414415 21.5916262,71.6768928 22.0350822,72.0936705 L22.3737452,72.4119648 L21.9035417,72.897294 C21.6449262,73.1642169 21.3968342,73.381095 21.3522182,73.3792288 C21.3076087,73.377343 20.9580387,73.0770222 20.5754097,72.7118109 Z M29.8869717,71.9209002 C30.3045902,71.4243798 30.4936817,70.7528782 30.3465022,70.2889689 C30.2555607,70.0023298 30.2854347,69.9819373 30.6651257,70.071473 C31.6698047,70.308386 33.2077827,70.7953344 33.2075292,70.8764361 C33.2068792,71.047015 31.8102957,71.9104633 31.1755317,72.1326412 C30.8230497,72.256017 30.3064037,72.3569584 30.0274302,72.3569584 L29.5202027,72.3569584 L29.8869717,71.9209002 Z M37.1622982,72.1963351 C36.5954722,72.0858152 35.6976727,71.7877573 35.6976727,71.7101021 C35.6976727,71.6962383 36.0813677,71.2901705 36.5503362,70.8077285 C37.3875622,69.9464391 37.4134062,69.9327444 37.9783407,70.0508399 C38.2947867,70.1169854 38.7019857,70.1341786 38.8832382,70.0890498 C39.0644842,70.0439211 39.2127752,70.0691386 39.2127752,70.1450901 C39.2127752,70.2210417 39.4423942,70.5841201 39.7230317,70.9519325 L40.2332882,71.6206834 L39.9061107,71.8341021 C39.5706717,72.052905 38.4339127,72.3596245 38.0410787,72.3373267 C37.9202437,72.3304664 37.5247967,72.2670195 37.1622982,72.1963351 L37.1622982,72.1963351 Z M26.8293652,71.7283486 C26.4225627,71.5502656 25.8953022,71.2582878 25.6576622,71.079522 L25.2255942,70.7544844 L25.7529782,70.7498675 C26.3613262,70.7445353 27.1757762,70.4968538 27.4993722,70.2188243 C27.8044237,69.9567198 29.3997837,70.1122775 29.3997837,70.4041188 C29.3997837,70.8047503 28.9855452,71.5901272 28.6503532,71.8250048 C28.1958927,72.1434487 27.7198002,72.1181857 26.8293652,71.7283747 L26.8293652,71.7283486 Z M41.1930197,71.0729282 C40.7113437,70.5500134 40.1658897,70.0531874 39.9809127,69.9688669 C39.5509832,69.7729014 39.6163277,69.594981 40.2458202,69.2475221 C41.3176247,68.6559257 42.6946302,69.1532914 43.8330987,70.5432246 L44.3585782,71.1847682 L43.9189182,71.1847682 C43.3709942,71.1847682 42.7448947,71.4162579 42.3617262,71.760511 C42.0754987,72.0176604 42.0487707,72.0019434 41.1930197,71.0729282 L41.1930197,71.0729282 Z M22.5246037,71.2193626 C21.9991567,70.8158244 21.7696807,70.7297351 21.3310282,70.7715865 L20.7879662,70.8233935 L21.2287897,70.2665801 C21.6208047,69.7714188 22.2604957,69.2152362 22.7639597,68.9318094 C22.8744727,68.869598 23.0414512,69.0635281 23.2184462,69.4596597 C23.3723337,69.8040624 23.6667707,70.2522482 23.8727492,70.4556332 L24.2472532,70.8254159 L23.7111852,71.2721906 L23.1751172,71.7189587 L22.5246037,71.2193626 Z M34.0249822,70.6079265 C33.7272887,70.3712476 32.8614172,69.9701934 32.1008327,69.7166986 C31.3402417,69.4632037 30.7179447,69.2340615 30.7179447,69.2074914 C30.7179447,69.1809214 31.1233107,68.8823693 31.6187602,68.5440402 L32.5195692,67.9288975 L33.6326162,68.2480177 C35.0711572,68.6604581 36.3107202,69.3871741 36.2525907,69.7840276 C36.2078902,70.0891669 35.0742122,71.0382493 34.7544187,71.0382493 C34.6509257,71.0382493 34.3226822,70.8445988 34.0249822,70.6079265 Z M24.6152182,69.7710677 C24.2183282,69.6851215 23.7130312,68.650678 23.5358022,67.5613128 C23.4169172,66.830539 23.4346297,66.4518867 23.6330162,65.4827922 L23.7054587,65.1289216 L23.9730052,65.5690505 C24.2706467,66.0586878 24.9499747,66.6425394 25.2220387,66.6425394 C25.3191942,66.6425394 25.4812977,67.0118929 25.5822817,67.4633235 C25.7074782,68.0229916 25.9247147,68.4599733 26.2651522,68.8369544 C26.6561597,69.2699369 26.7238182,69.4235112 26.5771912,69.5452548 C26.3607087,69.724996 25.0820482,69.8721652 24.6152182,69.7710677 Z M37.1436172,69.0352674 C37.0330587,68.9006809 36.4880077,68.5793824 35.9323812,68.3212641 L34.9221577,67.8519576 L35.7859167,67.5279864 C37.0604822,67.0499337 38.9470747,67.1354118 40.1486712,67.7256491 L41.0113382,68.1494042 L40.3443277,68.4026975 C39.9774742,68.5420114 39.4802372,68.7963906 39.2393602,68.9679839 C38.6827457,69.3644862 37.4466602,69.4041722 37.1436172,69.0352674 L37.1436172,69.0352674 Z M29.0336257,68.8257958 C28.7919622,68.7510342 28.3590622,68.727501 28.0716322,68.7735076 C27.5739402,68.8531657 27.5232077,68.820262 27.0076797,68.0835318 L26.4663402,67.3099183 L26.7979767,67.1825368 C27.2242987,67.0187858 29.8871602,67.1519416 30.6235452,67.3738334 L31.1882197,67.5439896 L30.4038517,68.2588057 C29.9724467,68.6519526 29.5865222,68.9709426 29.5462417,68.9676718 C29.5059677,68.9644204 29.2752892,68.9005574 29.0336257,68.8257958 Z M42.2486717,68.1701933 C41.3729397,67.7205444 41.2743607,67.6281801 41.4065057,67.3811554 C41.4888282,67.2272754 41.5579492,66.8827492 41.5601137,66.6155467 C41.5638187,66.1596942 41.6239242,66.102581 42.5341257,65.6901373 C43.0676652,65.4483734 43.5547687,65.2303963 43.6165772,65.205751 C43.7997797,65.1326932 44.0764652,66.7548736 43.9683572,67.2682034 C43.8487052,67.8363446 43.4637232,68.6967237 43.3336582,68.686664 C43.2824187,68.6826973 42.7941777,68.4502907 42.2486717,68.1701933 L42.2486717,68.1701933 Z M29.4730127,66.1408754 C28.2540807,65.8913244 26.9099132,65.4428916 26.9099132,65.2857928 C26.9099132,65.1127234 27.6386412,64.38881 28.0165382,64.1864849 C28.2361212,64.068916 28.6766067,64.0806989 29.6827547,64.2310674 C30.4350062,64.3434861 31.0753862,64.4603852 31.1058257,64.4908439 C31.1362717,64.521296 31.0614502,64.7849936 30.9395622,65.0768349 C30.8176742,65.3686762 30.7179447,65.7744189 30.7179447,65.9784737 C30.7179447,66.3923219 30.7077332,66.393655 29.4730127,66.1408754 L29.4730127,66.1408754 Z M31.9092257,66.2417063 C31.4215177,66.1825122 31.4172212,66.1754503 31.5111202,65.5879669 C31.6473667,64.7355731 31.8243617,64.4820457 32.3644272,64.3656864 C33.0821637,64.2110456 33.6338967,63.8924327 34.5445142,63.1067306 L35.3685972,62.3956861 L35.4538447,62.8220878 C35.5007292,63.0566078 35.7507842,63.4897008 36.0095297,63.7845138 L36.4799737,64.3205381 L36.0522087,64.6786354 C34.5029857,65.9755279 33.3378477,66.4151139 31.9092257,66.2417063 L31.9092257,66.2417063 Z M35.5187992,66.249295 C35.1324327,66.1478398 36.9240407,64.8450201 37.8741522,64.5365319 C38.3059472,64.3963336 38.6961747,64.3185873 38.7413237,64.3637551 C38.8548137,64.4772923 38.5103722,65.9170947 38.3127267,66.1553439 C38.1564277,66.3437467 36.1371182,66.4116545 35.5187992,66.249295 L35.5187992,66.249295 Z M39.4405027,65.80002 C39.5024347,65.6589894 39.5782897,65.2798623 39.6090607,64.9575103 C39.7231812,63.7621575 39.7018742,63.7857233 41.2985797,63.088471 C42.1249702,62.7275971 42.9550592,62.3843584 43.1432212,62.325717 C43.4520232,62.2294705 43.4698527,62.2480358 43.3263002,62.5163698 C43.2388297,62.6798737 43.1662572,63.1311808 43.1650287,63.5192686 C43.1638587,63.9073629 43.1143612,64.2988061 43.0551787,64.3891481 C42.9096047,64.6113585 41.2291532,65.44745 40.2523592,65.7836592 C39.2862382,66.1161977 39.3017927,66.1158725 39.4405027,65.80002 L39.4405027,65.80002 Z M25.1340677,65.4873896 C24.9322167,65.3285481 24.6464312,64.9309663 24.4989982,64.6038804 L24.2309317,64.0091692 L24.6238177,63.4420035 C25.2363777,62.557714 26.4967277,61.7379117 27.6717977,61.4594205 L28.0675242,61.3656385 L27.8548767,61.8747871 C27.7379222,62.1548195 27.6422292,62.6502344 27.6422292,62.9757077 C27.6422292,63.4352212 27.5555842,63.6409407 27.2545432,63.8961847 C26.6521947,64.406907 26.2591267,64.8071809 25.8641997,65.3120117 L25.5010707,65.7762006 L25.1340677,65.4873961 L25.1340677,65.4873896 Z M44.2979332,63.3823867 C44.3686662,62.5108555 44.5979147,61.8072631 44.8111602,61.8072631 C44.8902132,61.8072631 45.4918662,61.555719 46.1481712,61.2482777 L47.3414542,60.6892924 L47.3414542,61.7532321 C47.3414542,62.3384038 47.2755442,62.880157 47.1949897,62.9571425 C47.0360712,63.1090066 44.5604357,64.1516369 44.3587537,64.1516369 C44.2909652,64.1516369 44.2636002,63.805472 44.2979332,63.3823867 L44.2979332,63.3823867 Z M20.9197667,63.4885303 C20.2432012,63.2114111 19.6647142,62.959724 19.6342292,62.9292329 C19.5186982,62.8136473 20.9300757,61.5143488 21.1680797,61.5171905 C21.3052947,61.5188162 21.9871187,61.736026 22.6832297,61.9998601 L23.9488967,62.479545 L23.6352392,62.7893142 C23.4627292,62.959685 23.1682727,63.3029302 22.9809037,63.5520942 C22.7935282,63.8012583 22.5298947,64.0022503 22.3950522,63.9987454 C22.2602032,63.9952339 21.5963322,63.7656495 20.9197667,63.4885303 Z M31.6767532,63.5312661 C31.5278642,63.4479079 30.8228222,63.3464398 30.1099867,63.3057784 C28.6216557,63.2208791 28.6002707,63.1920526 29.2033667,62.0835044 L29.5927947,61.3676934 L30.4996747,61.3676934 C30.9984522,61.3676934 31.6305837,61.4440806 31.9044027,61.5374529 C32.4884147,61.7365917 33.6471957,62.4972648 33.6471957,62.6814929 C33.6471957,62.8281158 32.8682682,63.332589 32.3196942,63.5412412 C32.0739617,63.6347111 31.8554642,63.6313167 31.6767532,63.5312661 L31.6767532,63.5312661 Z M36.8129687,63.4060825 C36.4420397,63.1141892 35.9906017,62.412359 35.9906017,62.1275927 C35.9906017,61.9427794 37.5393697,61.2642159 38.4313452,61.0582428 C38.8688212,60.9572168 39.4986712,60.9300875 39.9876597,60.9912064 C40.7936597,61.0919528 41.7774867,61.5915034 41.7390912,61.8805225 C41.7105497,62.0954108 39.8297812,62.8323881 39.3003627,62.8361402 C38.8082737,62.8396516 37.6993152,63.2889754 37.5378812,63.5502865 C37.3952322,63.781191 37.2539222,63.7530863 36.8129687,63.4060825 L36.8129687,63.4060825 Z M48.3496497,62.0636776 C48.3402767,61.8823563 48.2826672,61.4264713 48.2216257,61.0506086 L48.1106317,60.3672201 L49.3788467,59.5487444 C50.0763682,59.0985818 50.6736272,58.7302687 50.7060947,58.7302687 C50.7385557,58.7302687 50.7574967,58.8456527 50.7481757,58.9866833 C50.7388547,59.1277139 50.8151257,59.4938616 50.9176632,59.800347 C51.1647347,60.5388264 51.0395317,60.9421435 50.4578792,61.2814285 C49.3988992,61.8991397 48.5092312,62.3881885 48.4399217,62.3906985 C48.3996477,62.3921942 48.3590227,62.244999 48.3496497,62.0636776 Z M17.0603072,61.5672353 C16.4360082,61.2012567 15.9256347,60.8582847 15.9261417,60.8050795 C15.9267917,60.7518679 16.1079012,60.5953934 16.3289142,60.4573475 C16.5499337,60.3193081 16.9151882,60.056807 17.1405887,59.8740096 L17.5504202,59.5416499 L18.9262687,60.2715133 C20.1988712,60.9466109 20.2780282,61.0140894 19.9810692,61.17072 C19.8044902,61.2638517 19.5097477,61.5440792 19.3260902,61.7934448 C18.8671967,62.4165143 18.4355122,62.3734144 17.0603072,61.5672353 L17.0603072,61.5672353 Z M51.9550255,59.9790802 C51.9550255,59.7677554 51.8507993,59.3932193 51.7234123,59.1467798 C51.4046022,58.5300115 51.5530967,58.1058987 52.2841939,57.5451317 C52.626755,57.282377 53.1212334,56.8681548 53.3830352,56.6246416 C53.7476325,56.2855061 53.8590393,56.2389923 53.8590393,56.4258995 C53.8590393,56.5601088 53.9958558,56.932512 54.1630755,57.2534594 C54.6274673,58.1447849 54.5155016,58.3887078 53.1633417,59.4314681 C51.9986106,60.3296865 51.9550255,60.3494417 51.9550255,59.9790802 L51.9550255,59.9790802 Z M13.4918527,59.1362715 C12.5824962,58.4176513 12.3981757,58.2115286 12.6251037,58.1669721 C12.7836257,58.1358502 13.1131627,57.9592238 13.3574132,57.774469 C14.0786857,57.2288922 14.3231117,57.2697487 15.5382282,58.13903 C16.6312097,58.920928 16.8550567,59.1698384 16.4652387,59.1698384 C16.3594772,59.1698384 16.0835132,59.3676441 15.8519897,59.6094081 C15.2179082,60.2715263 14.8300402,60.193767 13.4918527,59.1362715 L13.4918527,59.1362715 Z M55.0738028,56.8503114 C54.5594175,55.7171049 54.574738,55.6533264 55.6370265,54.5054758 C56.1715098,53.9279448 56.6491955,53.4554194 56.6985526,53.4554194 C56.747909,53.4554194 56.7882922,53.5569916 56.7882922,53.6811412 C56.7882922,53.8052843 56.917,54.0855118 57.0743098,54.3038595 C57.7517443,55.2441764 57.5835256,55.6925182 56.0811098,56.9509342 L55.3843774,57.5345127 L55.0738028,56.8503114 Z M10.3596392,56.3126289 C9.62941624,55.5771928 9.35399824,55.2137047 9.52698274,55.2137047 C9.66914424,55.2137047 10.0438367,55.0818299 10.3596392,54.9206539 C10.6754417,54.7594779 11.0517852,54.6307634 11.1959617,54.634626 C11.5172242,54.6432226 13.7442867,56.6784645 13.4327352,56.6787441 C13.3104702,56.6787441 12.9679462,56.8437762 12.6715787,57.0452494 C11.8267802,57.6195421 11.5794747,57.5411715 10.3596392,56.3126289 Z M32.3399027,56.4685767 C30.2183027,55.2042953 28.5180132,53.5801217 27.4383892,51.7864748 L26.9290492,50.9402846 L27.4547107,50.1181999 C28.4743267,48.5236332 29.6927062,45.3455739 29.6927062,44.2805742 L29.6927062,43.929916 L31.1939462,44.0242572 C32.0196282,44.0761423 32.7180467,44.1378074 32.7459772,44.1612757 C32.7739142,44.1847504 32.8542087,45.3789978 32.9244217,46.8151716 C33.0454257,49.2904384 33.2780737,51.5232259 33.4309212,51.6761369 C33.7151857,51.9605196 33.8937212,50.7337393 34.0995632,47.0816459 C34.1904007,45.469886 34.2740752,44.1435623 34.2855022,44.1342504 C34.2969292,44.1249451 34.9700367,44.0732811 35.7813017,44.0194517 L37.2563272,43.921586 L37.4379047,44.9074673 C37.6922627,46.2884918 38.5058872,48.3326553 39.3640562,49.7467591 L40.0922187,50.9466377 L39.7704362,51.5050443 C38.7527637,53.2710418 36.8605552,55.1691092 35.0202622,56.2699257 C34.3859077,56.6493844 33.7680307,56.9951396 33.6471957,57.0382655 C33.5263672,57.0813979 32.9380847,56.8250419 32.3399027,56.4685767 L32.3399027,56.4685767 Z M58.2529177,54.4473547 C58.2529177,54.3334403 58.0570272,53.9812345 57.8176049,53.6646764 C57.578182,53.3481183 57.3804585,52.9653042 57.3782173,52.8139863 C57.3759813,52.6626684 57.6941777,52.1022135 58.0853328,51.5685367 C58.4764872,51.0348599 58.8699309,50.4663416 58.9596543,50.3051656 C59.0921503,50.0671537 59.1236226,50.0576663 59.1272399,50.2546721 C59.1296839,50.3880751 59.3623728,50.7734448 59.6443129,51.1110456 C60.2445171,51.8297373 60.2667997,52.0071245 59.8347428,52.6269231 C59.1412214,53.6217911 58.2529177,54.644094 58.2529177,54.4473547 Z M8.72254924,54.3744789 C8.51521224,54.3261118 6.6980725,52.1237245 6.6980725,51.9207881 C6.6980725,51.8834301 6.7892415,51.8878584 6.900671,51.9306397 C7.0121005,51.9734145 7.349691,51.9054092 7.65086824,51.7795104 C8.65012624,51.3618223 8.87734024,51.4581728 9.86875924,52.7199833 C10.7690937,53.8658765 10.7691912,53.8661106 10.3813752,53.9337192 C10.1680322,53.9709082 9.76280274,54.0981921 9.48086524,54.2165673 C9.19892124,54.3349425 8.85768424,54.4060105 8.72254924,54.3744854 L8.72254924,54.3744789 Z M60.7427824,51.0829669 C60.7427824,50.9510661 60.5121045,50.605519 60.2301631,50.3150758 C59.9482224,50.024639 59.7175445,49.6479635 59.7175445,49.4780284 C59.7175445,49.2490617 60.6644834,47.2926781 60.9705866,46.8892244 C61.0535792,46.7798425 62.3538711,48.1756931 62.3538711,48.3741686 C62.3538711,48.5762076 61.4088159,50.3564069 60.9419794,51.0337544 C60.7775606,51.2723126 60.7427824,51.2809027 60.7427824,51.0829669 Z M5.2700615,49.6682194 C4.847152,48.9424463 4.50113101,48.3199621 4.50113101,48.284919 C4.50113101,48.2498824 4.66361801,48.2522819 4.862206,48.2902512 C5.0607875,48.328227 5.431099,48.2868048 5.685106,48.198238 C6.4430515,47.9339096 6.7163375,48.116538 7.52073174,49.4249533 L8.27015574,50.6439564 L7.74042524,50.7377579 C7.4490695,50.7893439 6.9470615,50.8667065 6.6248435,50.9096764 L6.038992,50.9877998 L5.2700615,49.6682194 Z M22.8089657,50.6865621 C21.6020132,50.4271563 20.4819007,49.5432245 19.9118962,48.4003615 C19.6659232,47.9071705 19.2614347,46.7117527 19.3422817,46.7169223 C19.3559317,46.7177677 19.6906297,46.8166998 20.0860637,46.9367072 C21.0630332,47.2332044 21.7694402,47.2109651 22.7240432,46.8536546 C23.8044862,46.4492386 24.7218052,45.4347779 25.0968552,44.229567 C25.2596412,43.7064571 25.4409522,43.3710087 25.5407142,43.4083732 C25.6334692,43.4431172 26.3749372,43.5522455 27.1884187,43.6508785 C28.9063167,43.8591731 28.8758187,43.8111766 28.3576257,45.4910848 C27.2337627,49.1345101 25.0595907,51.1702852 22.8089657,50.6865621 L22.8089657,50.6865621 Z M42.3011527,50.5013327 C41.4670662,50.2615845 40.0794267,48.7354002 39.3897117,47.2992133 C38.8510892,46.1776337 38.3340012,44.5861948 38.3340012,44.0500599 C38.3340012,43.9000556 38.7385742,43.7919026 39.8352412,43.6487326 C40.6609232,43.5409438 41.4047637,43.4269319 41.4882107,43.3953808 C41.5716642,43.3638297 41.7162112,43.6233006 41.8094342,43.9719885 C42.0631812,44.9211165 42.8494927,45.9870069 43.6679207,46.491285 C44.3230297,46.8949273 44.5021112,46.9351205 45.6451687,46.9351205 C46.3364632,46.9351205 47.0590422,46.878469 47.2509092,46.8092282 C47.5892537,46.6871204 47.5965857,46.7001909 47.4946592,47.2437323 C47.2568957,48.5116747 46.4015217,49.6169846 45.1889662,50.2231601 C44.2338887,50.7006145 43.3055522,50.7900397 42.3011527,50.5013327 Z M4.26455051,47.293608 C4.07620651,47.2239055 3.80466901,46.7910986 3.52013151,46.1070989 C2.77020701,44.3043026 2.73796051,44.4398514 3.91379751,44.4522586 C4.47541701,44.458176 4.9602845,44.491769 4.9912895,44.5268901 C5.05367,44.597542 6.2586855,47.172118 6.2586855,47.234739 C6.2586855,47.256328 6.1419975,47.2434722 5.9993745,47.2061596 C5.856758,47.1688471 5.474792,47.1979532 5.150559,47.270829 C4.8263325,47.3437113 4.42762901,47.3539596 4.26455051,47.293608 L4.26455051,47.293608 Z M62.6467968,47.2555867 C62.6467968,47.1497812 62.4434001,46.8695537 62.1948044,46.6328554 C61.3886165,45.8652699 61.38484,45.7944814 62.0712751,44.3187321 L62.6944503,42.9789868 L63.4029366,43.6704582 C63.7926064,44.0507687 64.1114249,44.4641845 64.1114249,44.58916 C64.1114249,44.8337136 62.8377109,47.4479561 62.7185575,47.4479561 C62.6790895,47.4479561 62.6467968,47.3613857 62.6467968,47.2555867 L62.6467968,47.2555867 Z M4.45407101,43.5424199 C4.40133001,43.489657 4.00629251,43.4579954 3.57620701,43.4720542 C2.98796351,43.4912827 2.73852601,43.4333696 2.56938951,43.2383016 C2.37402551,43.0129829 1.71834451,40.8777425 1.71834451,40.4668627 C1.71834451,40.3301564 1.98853001,40.3570125 3.58574251,40.6524954 C3.77238351,40.6870182 3.91887401,40.8234384 3.92356701,40.9670831 C3.92811701,41.1065726 4.11264551,41.7646721 4.33361951,42.4295279 C4.69719701,43.5234321 4.72902101,43.8174843 4.45407101,43.5424199 Z M64.0628439,43.1487918 C63.8347459,42.974812 63.4624467,42.6628904 63.2355207,42.4556363 L62.8229299,42.0788112 L63.1645907,40.697351 C63.3525038,39.9375557 63.5105987,39.2891973 63.5159112,39.2565602 C63.5212217,39.2239231 63.640912,39.2979304 63.7818814,39.4210135 C63.9228534,39.5441032 64.2829274,39.7584908 64.5820444,39.897434 C64.8811614,40.0363773 65.1607199,40.2598427 65.2032949,40.3940194 C65.2639399,40.5851924 64.6428714,43.3057346 64.5091404,43.4346897 C64.4917789,43.4514211 64.2909484,43.3227717 64.0628439,43.1487918 Z M30.2785577,42.8085639 C26.7820127,42.4657285 24.8591892,42.1147711 23.9770352,41.6583984 C23.5137932,41.4187478 23.4078497,41.0010597 23.7402987,40.7250395 C24.1045002,40.4226508 25.5609617,39.9983755 27.1601047,39.7288385 C29.4271227,39.3467202 37.3552832,39.3418691 39.7431362,39.7211328 C42.5385977,40.1651308 43.7825742,40.6913425 43.4604147,41.2935578 C43.1278552,41.9152032 40.6404092,42.4926171 37.1622982,42.7555474 C35.3246507,42.8944646 31.4583207,42.9242405 30.2785577,42.8085639 L30.2785577,42.8085639 Z M40.2180847,41.5894893 C41.8453077,41.389037 42.4797857,41.192935 42.1316977,40.998049 C41.2098417,40.4819295 34.6476822,40.1481262 30.2419432,40.3932521 C26.3972582,40.6071585 24.6036547,40.8519463 24.7807342,41.1385854 C24.8867102,41.3101267 26.4947062,41.574299 28.3828522,41.7303638 C30.4169297,41.8984977 38.4897087,41.8024073 40.2180847,41.5894893 L40.2180847,41.5894893 Z M2.63100301,39.5330746 C1.43997552,39.3593289 1.42897752,39.3406336 1.15705652,37.0275508 L1.04306602,36.0579133 L1.52246052,36.2583006 C1.78613301,36.3685149 2.15227151,36.4607882 2.33610451,36.4633503 C2.91923251,36.4714787 3.12296201,36.7769301 3.31027901,37.9239288 C3.40898801,38.5283355 3.52672901,39.1712057 3.57193001,39.3525336 C3.61713101,39.5338549 3.59754001,39.6739817 3.52838651,39.6639285 C3.45923951,39.6538753 3.05541401,39.5949933 2.63100301,39.5330746 L2.63100301,39.5330746 Z M65.3698834,39.2626662 C65.3013734,39.1527966 64.9659474,38.9392738 64.6244894,38.7881705 C63.6942023,38.3764909 63.6801785,38.3368114 63.8700799,36.653834 L64.0381894,35.1639542 L64.3839569,35.4450141 C64.5741339,35.5995963 64.8395744,35.7260739 64.9738384,35.7260739 C65.5146709,35.7260739 65.8693759,36.1546215 65.8599769,36.7966788 C65.8451634,37.8076865 65.5110179,39.4890058 65.3698834,39.2626662 L65.3698834,39.2626662 Z M13.9061107,38.9655447 C10.9259647,37.9357247 8.86348874,34.6001244 9.09451824,31.1838451 C9.24376474,28.9769383 9.99561974,27.2971602 11.5274292,25.74834 C13.6742102,23.5777053 16.7898162,22.8871248 19.7654447,23.9223811 C23.0158672,25.0532401 25.9582807,28.5570783 27.6243672,33.2808301 C28.1220462,34.691871 28.6674677,37.150855 28.6674677,37.9835716 C28.6674677,38.5040219 28.6603762,38.5101085 28.0450017,38.5177816 C27.7026467,38.5220084 26.8952687,38.6130918 26.2508327,38.7200872 C25.6063967,38.8270892 25.0753662,38.9060125 25.0707642,38.8954781 C25.0661492,38.8849502 24.8785397,38.3968769 24.6538152,37.8108858 C23.6538357,35.2032826 21.6587062,33.6120127 19.7436632,33.8946722 C17.6919707,34.1974966 16.4896527,35.7110071 16.4555732,38.033805 L16.4378412,39.2426184 L15.5590607,39.2378714 C15.0757337,39.2352703 14.3319062,39.1127139 13.9061107,38.9655707 L13.9061107,38.9655447 Z M15.0345432,31.9400378 L15.4662537,31.0844708 L16.3584437,31.228213 C16.8491417,31.3072729 17.2978757,31.3246871 17.3556282,31.2669171 C17.4133742,31.2091471 17.1487072,30.8670464 16.7674822,30.5066991 L16.0743352,29.8515193 L16.5145022,28.9791818 C16.7566012,28.4993994 16.8892792,28.1068507 16.8093487,28.1068507 C16.7294182,28.1068507 16.2998852,28.2855125 15.8548237,28.5038797 L15.0456322,28.9009152 L14.2952592,28.1742057 L13.5448862,27.4474962 L13.6337672,28.1433764 C13.6826537,28.526119 13.7607512,28.9911467 13.8073237,29.1767859 C13.8805072,29.4684906 13.7814927,29.5721437 13.0778287,29.9404438 C12.6300307,30.1748142 12.2636517,30.4133528 12.2636517,30.4705246 C12.2636517,30.5717457 12.4991012,30.6316225 13.6072602,30.8122026 L14.1453237,30.899885 L14.2467887,31.8477385 C14.3025977,32.3690667 14.4055382,32.7956049 14.4755497,32.7956049 C14.5455547,32.7956049 14.7971047,32.4105994 15.0345432,31.9400378 L15.0345432,31.9400378 Z M50.5599162,38.0505234 C50.5540662,36.1175951 49.9421562,35.0151269 48.4470587,34.2438023 C47.5532632,33.7826892 46.1332147,33.782208 45.2439627,34.2428269 C44.0345402,34.8691412 42.7088132,36.6321214 42.2061357,38.2825919 C42.1066597,38.6092096 41.9568347,38.8613389 41.8731797,38.8428843 C41.7895312,38.8244296 40.9589937,38.7298543 40.0275437,38.6327234 C38.0664612,38.4282199 38.1951547,38.6140086 38.5603832,36.5146241 C38.8359637,34.9305462 39.5915237,32.6257088 40.3681112,31.0000982 C42.1386852,27.2938243 44.8164642,24.6450264 47.6666232,23.7805832 C51.738244,22.5456744 56.0908637,24.8208335 57.5355238,28.9391576 C57.921445,30.0393044 58.0657262,32.3190154 57.8175789,33.3957524 C57.0723591,36.6293513 54.526872,39.0466334 51.6942526,39.2106771 L50.5636277,39.2761593 L50.5599227,38.050634 L50.5599162,38.0505234 Z M52.7640948,32.0122373 C52.8179037,31.5813813 52.9098878,31.1512405 52.9685035,31.0563531 C53.0271199,30.9614721 53.4581875,30.8214624 53.9264313,30.7452248 C54.3946744,30.6689806 54.8063304,30.5780468 54.8412192,30.5431468 C54.8761079,30.5082403 54.5186333,30.2589917 54.046834,29.9892531 L53.1890134,29.4988257 L53.2958916,28.9127307 C53.354675,28.5903787 53.4065678,28.1313074 53.4112107,27.8925737 L53.419651,27.4585118 L52.683006,28.1843824 L51.9463616,28.9102531 L51.1409122,28.4883643 C50.6979177,28.2563348 50.2976412,28.1043277 50.2514067,28.1505749 C50.2051787,28.1968221 50.3447467,28.6098023 50.5615607,29.0683013 L50.9557727,29.9019348 L50.2470842,30.6263424 L49.5383957,31.3507564 L50.5929102,31.2490932 L51.6474292,31.1474234 L52.0514315,31.9715109 C52.2736321,32.4247623 52.5028702,32.7956049 52.5608469,32.7956049 C52.6188243,32.7956049 52.7102858,32.4430869 52.7640948,32.0122373 L52.7640948,32.0122373 Z M29.6988487,37.2354357 C29.3887987,35.2979945 28.5817847,32.9333972 26.9735937,29.2502729 C25.3151187,25.4519793 24.8263837,23.9975068 24.5633482,22.0773823 C24.1529447,19.0814376 25.3113877,15.7539982 27.6361452,13.251238 C28.0019912,12.8573888 29.0922102,11.9053281 30.0588642,11.1355382 C31.0255182,10.3657548 32.1951347,9.37597192 32.6580192,8.93601857 L33.4996327,8.13609511 L34.2691092,8.86193327 C34.6923242,9.2611537 35.8294927,10.2205364 36.7961467,10.9939094 C39.5815592,13.222392 40.8318992,14.6988177 41.7072737,16.7930586 C43.1410567,20.2232602 42.8176167,23.0379225 40.3589917,28.5259694 C38.4563507,32.772969 37.7849527,34.6788721 37.3877377,36.9604169 C37.2625347,37.6795963 37.1441112,38.2730199 37.1245787,38.279126 C37.1050462,38.2852385 36.4571652,38.2694694 35.6848352,38.2441089 L34.2805947,38.1979787 L34.1837187,30.8446706 C34.1304382,26.8003472 34.0596922,23.3265189 34.0265162,23.1250522 C33.9933402,22.9235725 33.9254867,21.6708008 33.8757357,20.3411022 C33.7769227,17.7003937 33.6314852,15.4726978 33.5624097,15.541802 C33.4429527,15.6613087 33.3440487,16.7004406 33.2171687,19.1689185 C32.9723007,23.9330455 32.9219062,25.5591829 32.8210067,31.9530953 L32.7221612,38.2169731 L31.5123422,38.2169731 C30.8469372,38.2169731 30.2078442,38.2533167 30.0921442,38.2977302 C29.9288057,38.3604357 29.8408802,38.1229375 29.6988487,37.2354357 L29.6988487,37.2354357 Z M2.52388951,35.52899 C2.28222601,35.4565889 1.85382401,35.3203507 1.57188002,35.2262241 L1.05926402,35.0550925 L1.01759252,33.385231 C0.977832022,31.7916006 0.987855022,31.7260274 1.23729252,31.94881 C1.38104002,32.0771993 1.77763751,32.2565569 2.11862751,32.3473801 C2.46069651,32.4384895 2.80782901,32.6419201 2.89304401,32.8012038 C2.97824601,32.9604744 3.02860801,33.6661412 3.00538351,34.3752545 L2.96327651,35.6606177 L2.52388951,35.52899 Z M65.7957439,35.0190415 C65.7151894,34.9438508 65.3856459,34.8000955 65.0634279,34.6995832 C64.0720544,34.3903342 64.0146659,34.2816741 63.9826404,32.6531892 L63.9539819,31.1955239 L64.3622404,31.4085655 C64.5867894,31.5257377 64.9114969,31.6220167 65.0838184,31.6225109 C65.2561399,31.6231611 65.5389744,31.7387987 65.7123359,31.8798293 C66.0037179,32.1168658 66.0243164,32.2503728 65.9848744,33.6460024 C65.9566644,34.6442778 65.8925874,35.1094421 65.7957439,35.0190415 L65.7957439,35.0190415 Z M2.83748201,31.6568647 C2.77907301,31.5623219 2.47148001,31.4070958 2.15394201,31.3119223 C1.12664302,31.0040063 1.06025202,30.8327121 1.27940602,29.055621 L1.46983652,27.5114177 L1.77716951,27.7854221 C1.94620201,27.9361223 2.30121901,28.1450736 2.56610051,28.2497541 C3.27017401,28.5280113 3.34393601,28.7719862 3.17145201,30.2521508 C2.99027101,31.8069275 2.97357901,31.8771632 2.83748201,31.6568647 L2.83748201,31.6568647 Z M65.7645764,30.8742644 C65.6749284,30.7845856 65.2843369,30.6519175 64.8965794,30.5794449 C64.5088284,30.5069787 64.1161634,30.3660587 64.0239934,30.2663007 C63.9318234,30.1665363 63.7777409,29.5574346 63.6815819,28.9127307 C63.5854248,28.2680267 63.4717931,27.6194927 63.4290699,27.4715497 C63.362478,27.2409508 63.3938035,27.2252663 63.6485463,27.361654 C63.8119829,27.4491609 64.1850439,27.5207556 64.4775764,27.5207556 C65.5154249,27.5207556 65.6286809,27.7480251 65.9196209,30.4145948 C65.9948844,31.1044015 65.9948129,31.1046031 65.7645764,30.8742644 Z M3.32943451,27.6680288 C3.32943451,27.587857 3.03075301,27.3818059 2.66570651,27.2101345 C1.70656651,26.7591006 1.66795001,26.6080493 2.10377501,25.0122666 C2.31022151,24.2563534 2.50254351,23.6135482 2.53115651,23.5838049 C2.55976301,23.554068 2.69141401,23.6380244 2.82371501,23.7703739 C2.95601601,23.9027299 3.25378751,24.1090737 3.48542801,24.2289055 C4.16395001,24.5799279 4.22593401,24.8485675 3.90960501,26.0672065 C3.75437851,26.6651885 3.62625051,27.3028045 3.62486601,27.4841259 C3.62350101,27.6654473 3.55644701,27.8137999 3.47589901,27.8137999 C3.39534451,27.8137999 3.32943451,27.7482072 3.32943451,27.6680288 L3.32943451,27.6680288 Z M65.1366634,26.6416162 C65.0158284,26.5634928 64.6165009,26.4985698 64.2492639,26.4973343 C63.8820269,26.4961638 63.4806155,26.4126691 63.3572416,26.3119357 C63.2338671,26.2112024 62.9902347,25.6222396 62.8158345,25.0031433 C62.6414363,24.384034 62.4645342,23.7883019 62.4227178,23.6792841 C62.3216915,23.4159051 64.2404109,23.4787667 64.4908494,23.7470422 C64.6267384,23.8926052 65.4769839,26.7945403 65.3812129,26.7858917 C65.3675434,26.7846562 65.2574919,26.7197332 65.1366634,26.6416162 Z M3.65479851,23.1851372 L2.88168851,22.4244901 L3.16692151,21.7124766 C4.04641051,19.5170472 4.10127701,19.4184012 4.26956851,19.7301407 C4.35665551,19.8914533 4.60956401,20.1659649 4.831604,20.3401593 C5.5673715,20.9173977 5.587255,21.1007739 5.066475,22.5057998 C4.80581201,23.2090346 4.55550351,23.8207178 4.51022451,23.8650988 C4.46494551,23.9094797 4.08000251,23.6034951 3.65479851,23.1851372 L3.65479851,23.1851372 Z M63.1345211,22.5518975 C62.5569473,22.5044863 62.0550063,22.432729 62.0190944,22.3924317 C61.9831839,22.3521345 61.6838582,21.73852 61.353926,21.028828 C60.8648049,19.9767297 60.8003314,19.7449409 61.0047265,19.7734032 C61.1425974,19.7925927 61.5327313,19.7580113 61.8716913,19.6965608 C62.737063,19.5396506 63.0216668,19.6753815 63.3115512,20.3832592 C63.7668924,21.4951628 64.2366344,22.6859507 64.2103874,22.6617867 C64.1962369,22.6487683 63.7120942,22.5993087 63.1345211,22.5518975 L63.1345211,22.5518975 Z M5.341516,19.4530021 C4.959862,19.0665139 4.64759551,18.6674821 4.64759551,18.566274 C4.64759551,18.4650595 4.989684,17.8041833 5.4077835,17.0976582 L6.1679715,15.8130493 L6.412053,16.2088948 C6.5462975,16.4266183 6.797386,16.7303595 6.970026,16.8838753 C7.4241615,17.2876996 7.3619565,17.7131259 6.659677,19.0062664 L6.03543,20.1557296 L5.341516,19.4530021 Z M60.2520538,18.6570518 C60.1138807,18.5188173 59.8704947,18.1653434 59.711194,17.8715513 C59.551892,17.5777462 59.261069,17.097307 59.0649185,16.8039051 L58.7082817,16.2704363 L59.0298348,16.2774983 C59.2066881,16.2813999 59.6714465,16.192703 60.0626276,16.0804339 C60.7678262,15.8780243 60.7765902,15.8797085 61.094277,16.2782916 C61.2705005,16.4993835 61.6598615,17.1343984 61.9595226,17.6894366 C62.4909808,18.6738092 62.4962198,18.698487 62.1728071,18.6947154 C61.9904528,18.6925695 61.5402069,18.7397791 61.172264,18.799604 C60.6355824,18.8868573 60.4535896,18.858655 60.2520538,18.6570388 L60.2520538,18.6570518 Z M7.86977524,16.5823385 C7.86977524,16.4222614 7.70281624,16.1460592 7.4987555,15.9685549 C7.073896,15.5989998 6.7952865,14.9753841 6.942843,14.7242757 C6.9980605,14.6303117 7.4030755,14.0822769 7.84287824,13.5064496 L8.64251474,12.4594755 L9.13492224,13.1914977 C9.40574474,13.594106 9.62732324,14.0447563 9.62732324,14.1929269 C9.62732324,14.3411105 9.25856524,14.9773674 8.80785524,15.6068095 C7.81274424,16.9965671 7.86977524,16.937269 7.86977524,16.5823385 L7.86977524,16.5823385 Z M57.9136112,15.1172991 C57.7116322,14.8877537 57.2806555,14.375965 56.9558843,13.9799959 L56.3653938,13.2600492 L57.104005,12.9177014 C58.2699087,12.3773073 58.3840786,12.4202251 59.3950782,13.7788803 L60.2906378,14.982407 L59.6013187,15.1781124 C58.2657422,15.5572915 58.3019199,15.558592 57.9136112,15.1172991 L57.9136112,15.1172991 Z M10.3596392,13.4284887 C10.3596392,13.3305775 10.1930767,13.0100138 9.98950324,12.7161371 C9.33958774,11.7779077 9.37561724,11.6270385 10.5353602,10.4305022 C11.1103762,9.83722812 11.6356152,9.35183388 11.7025522,9.35183388 C11.7694957,9.35183388 11.8242647,9.48634229 11.8242647,9.6507176 C11.8242647,9.81510593 11.9599587,10.2156919 12.1257997,10.5409116 C12.2916472,10.8661312 12.4069897,11.2186102 12.3821142,11.3242076 C12.3162692,11.6037003 10.3596392,13.6394754 10.3596392,13.4284887 L10.3596392,13.4284887 Z M54.4280337,11.3308989 C53.5860308,10.5085931 53.4969152,10.3727192 53.7474388,10.2931716 C53.9059881,10.2428277 54.2687895,10.0434028 54.5536631,9.84999943 C54.8385373,9.65659605 55.1762103,9.49835928 55.3040439,9.49835928 C55.4318787,9.49835928 56.0097391,9.96866725 56.5881774,10.5434736 L57.6398819,11.588601 L56.9577765,11.9348439 C55.8583853,12.4928928 55.5400491,12.4168958 54.4280337,11.3308989 Z M13.1424257,10.5292067 C13.1424257,10.3645908 13.0106122,9.98387057 12.8495032,9.68315308 C12.3532932,8.75696015 12.4096742,8.6529169 14.0888517,7.39625012 L14.9560947,6.74721537 L15.2161792,7.50005926 C15.6178792,8.66282702 15.5811087,8.79358987 14.6436722,9.53590589 C14.1804822,9.90268432 13.6532152,10.3435546 13.4719692,10.5156226 C13.1445707,10.8264583 13.1424257,10.8265428 13.1424257,10.5292067 L13.1424257,10.5292067 Z M51.3064672,8.75448912 C50.6678162,8.27715173 50.2394142,7.88596865 50.3544577,7.88518182 C50.4695012,7.88407636 50.8530142,7.65362709 51.2067052,7.37235268 C51.5604007,7.09107828 51.9448081,6.86094114 52.0609449,6.86094114 C52.177083,6.86094114 52.7940975,7.26492153 53.43209,7.75866524 L54.5920761,8.65639585 L53.8227855,9.14689471 C53.3996758,9.41665933 52.9216782,9.63400566 52.7605698,9.62987644 C52.5994608,9.62577974 51.9451143,9.23182 51.3064672,8.75448912 L51.3064672,8.75448912 Z M16.3040452,8.12619799 C16.3526327,7.99952535 16.2807817,7.60354977 16.1443792,7.24623927 C16.0079767,6.88892226 15.9392327,6.46148662 15.9916227,6.29636999 C16.0467492,6.12259177 16.6234097,5.68432262 17.3608217,5.25574249 L18.6347762,4.51533177 L18.7553252,5.48130174 C18.8216252,6.01258555 18.8438227,6.53083144 18.8046537,6.63293687 C18.7654847,6.73505532 18.3816987,7.02273488 17.9517952,7.27221106 C17.5218917,7.52170026 16.9554037,7.86772207 16.6929272,8.04116215 C16.3258787,8.28369345 16.2361007,8.30333161 16.3040452,8.12619799 L16.3040452,8.12619799 Z M48.1298392,6.72954753 L46.8677407,6.05141318 L47.5701307,5.35725618 C47.9564517,4.9754565 48.3518012,4.66307967 48.4486902,4.66307967 C48.5455792,4.66307967 49.2172372,5.00222163 49.9412657,5.4167169 C51.0678067,6.06166144 51.2181842,6.1912408 50.9838852,6.3151628 C50.8332997,6.3947949 50.5123687,6.63954362 50.2707052,6.85904235 C50.0290417,7.07853457 49.7324532,7.29177119 49.6116247,7.33290079 C49.4907897,7.37403688 48.8239872,7.10252954 48.1298392,6.72954753 L48.1298392,6.72954753 Z M19.7900277,6.04511207 C19.8387517,5.91808827 19.8068887,5.52920715 19.7192232,5.18090939 C19.6069552,4.73485651 19.6055252,4.46226321 19.7144132,4.25876764 C19.8452192,4.01425952 22.1012587,2.90496998 22.4682357,2.90472028 C22.6290002,2.90459022 22.5886547,4.79609246 22.4244322,4.9581333 C22.3539982,5.02764069 21.7125197,5.35260025 20.9989237,5.68027794 C20.0768272,6.10369491 19.7271012,6.20924028 19.7900602,6.04511207 L19.7900277,6.04511207 Z M44.7051257,5.15227799 C44.2217987,4.94841827 43.6779502,4.72335323 43.4965677,4.65212912 L43.1667837,4.5226213 L43.6430322,3.87535529 C44.3838307,2.86852168 44.5186797,2.84740676 46.0837302,3.49328574 C47.4130842,4.0418895 47.7561932,4.22351649 47.4632252,4.22351649 C47.3825212,4.22351649 47.0156482,4.5202218 46.6479562,4.88287102 C46.2802707,5.24552024 45.8904397,5.53788826 45.7816687,5.53258205 C45.6728977,5.52724984 45.1884527,5.35614422 44.7051257,5.15227799 Z M23.5404172,3.64902287 C23.5818352,3.09128737 23.6583272,2.59233239 23.7103987,2.5402464 C23.8202552,2.43033577 26.3032357,1.73260943 26.5844972,1.73260943 C26.7262297,1.73260943 26.7356872,1.80378932 26.6221452,2.01602517 C26.5387567,2.17190406 26.4705262,2.59241953 26.4705262,2.95049215 C26.4705262,3.30856542 26.3881452,3.66550852 26.2874472,3.74370807 C26.1400597,3.85816149 23.7156962,4.66307967 23.5183627,4.66307967 C23.4890672,4.66307967 23.4989927,4.20675902 23.5404172,3.64902287 Z M40.6485732,3.86421616 C39.4914302,3.58360243 38.8892572,3.34437255 39.3400322,3.34437255 C39.4368757,3.34437255 39.6412552,3.05229586 39.7942132,2.6953209 C40.1929037,1.76481992 40.4323507,1.68181682 41.7237252,2.02645746 C43.8559917,2.59551677 43.7216302,2.53834436 43.3704352,2.72719389 C43.2002327,2.81871748 42.9767497,3.09703641 42.8738027,3.3456874 C42.5529692,4.1205722 42.1208492,4.22125355 40.6485732,3.86421616 Z M27.3126857,3.48050598 C27.4133837,3.37339867 27.4957647,3.03830985 27.4957647,2.7358659 C27.4957647,1.64560717 27.6747682,1.4842296 29.0880047,1.3004008 C29.7830822,1.20999698 30.4904772,1.11639838 30.6599907,1.09241446 C30.9467902,1.05182524 30.9544797,1.07508085 30.7707377,1.42734006 C30.6621422,1.63553319 30.5728777,1.97989161 30.5723837,2.19258395 C30.5707587,2.87358534 30.1659257,3.16205433 28.9603902,3.34114526 C28.3562347,3.43089686 27.6971542,3.54278562 27.4957647,3.58978585 C27.1953997,3.65990059 27.1625032,3.64026373 27.3126857,3.48050598 Z M36.4810072,3.16419502 L35.2870937,3.02485641 L35.4834392,2.63514944 C35.5914302,2.42081581 35.7568032,2.03334772 35.8509427,1.77412204 C35.9450822,1.51488594 36.1535892,1.26103994 36.3142952,1.21000803 C36.4750012,1.15898653 37.2627622,1.19766265 38.0648752,1.2959562 C39.4892527,1.4705154 39.5165397,1.48094769 39.2352392,1.74312885 C39.0768277,1.89077012 38.8698742,2.24601796 38.7753447,2.53257386 C38.6055907,3.04713402 38.2425202,3.36367257 37.8676262,3.32395342 C37.7616372,3.3127278 37.1376567,3.24083067 36.4810072,3.16419502 L36.4810072,3.16419502 Z M31.3037962,2.91309836 C31.3037962,2.83746282 31.3608077,2.74032155 31.4304942,2.69723334 C31.5001807,2.65415554 31.5931177,2.35096183 31.6370187,2.02349093 C31.7675712,1.04974958 31.8672552,1 33.6878337,1 C35.2162502,1 35.2913057,1.01387742 35.0749142,1.25641067 C34.9490937,1.39744453 34.7707922,1.79595421 34.6786872,2.14198642 C34.5648852,2.56952221 34.4050827,2.81151249 34.1800267,2.89711277 C33.7251567,3.07012887 31.3037962,3.08358231 31.3037962,2.91309836 L31.3037962,2.91309836 Z" id="path4283" fill="#000000" fill-rule="nonzero"></path><path d="M137.176071,45.0617146 C137.176071,45.0617146 137.498578,45.5718993 137.498578,46.0593651 C137.498578,46.5364594 136.851587,47.433851 136.561182,47.8600749 C136.270777,48.2749395 135.375361,49.5975673 135.375361,49.5975673 C135.375361,49.5975673 134.189046,51.3933382 134.189046,53.1298427 C134.189046,54.8663473 135.081992,56.63693 136.270777,57.667177 C137.4645,58.6934729 138.5955,59.6935929 138.5955,59.6935929 L138.94122,59.3039165 C138.94122,59.3039165 137.003704,56.7199029 137.003704,53.2147912 C137.003704,53.2147912 136.90147,51.5499002 138.23842,48.881432 C138.655754,48.0492334 138.655754,47.3400126 138.655754,47.1518418 C138.655754,46.9582384 138.393994,45.4785547 137.556857,44.7357496 L137.176071,45.0617146 Z M143.98627,32.8296304 C150.739179,28.1209175 153.353813,22.4407301 152.490006,18.2624512 C151.623729,14.0970134 147.869205,12.1545582 144.303345,12.8973633 C140.741436,13.6460951 137.682304,18.0668722 137.682304,18.0668722 L138.458694,18.763252 C139.651429,17.1773828 141.771683,16.1061432 142.270015,15.9999577 C142.767852,15.8972293 146.685359,15.0482386 147.746721,20.1426767 C149.058977,26.4550387 142.973803,31.7381414 142.973803,31.7381414 L143.98627,32.8296304 Z M130.019163,32.8296304 L131.021752,31.7381414 C131.021752,31.7381414 124.948431,26.4550387 126.258218,20.1426767 C127.317604,15.0482386 131.232642,15.8972293 131.731961,15.9999577 C132.23128,16.1061432 134.355979,17.1773828 135.547727,18.763252 L136.323623,18.0668722 C136.323623,18.0668722 133.263009,13.6460951 129.698631,12.8973634 C126.134252,12.1545582 122.389112,14.0970134 121.516909,18.2624512 C120.650138,22.4407301 123.260821,28.1209175 130.019163,32.8296304 Z M144.81995,33.4904504 L145.600785,34.7493668 C145.600785,34.7493668 152.313688,30.3014259 158.043758,33.2494338 C162.674437,35.6349051 160.808534,39.1834788 160.569987,39.6309399 C160.34033,40.0813643 158.738656,41.8465142 156.89004,42.5759844 L157.347872,43.5059725 C157.347872,43.5059725 162.438359,41.7423042 164.103251,38.5033972 C165.774068,35.2669597 164.902359,31.1356 161.117213,29.1803038 C157.329599,27.2334037 151.164909,28.2364869 144.81995,33.4904504 Z M129.181532,33.4904504 C122.839536,28.2364869 116.665956,27.2334037 112.881799,29.1803038 C109.090233,31.1356 108.228895,35.2669597 109.896256,38.5033972 C111.562628,41.7423042 116.64867,43.5059725 116.64867,43.5059725 L117.106997,42.5759844 C115.262331,41.8465142 113.658188,40.0813643 113.426062,39.6309399 C113.196898,39.1834788 111.328526,35.6349051 115.962662,33.2494338 C121.690263,30.3014259 128.405636,34.7493668 128.405636,34.7493668 L129.181532,33.4904504 Z M132.190287,47.3740907 L130.917048,46.6060974 C130.917048,46.6060974 126.982749,53.6400274 120.538026,53.6400274 C115.328512,53.6400274 115.365554,49.6311515 115.365554,49.1239302 C115.365554,48.6132517 115.987357,46.3127289 117.299613,44.8251431 L116.462475,44.2043279 C116.462475,44.2043279 112.747956,48.1010915 112.747956,51.7415281 C112.747956,55.3839402 115.405558,58.6623581 119.664835,58.6623581 C123.928062,58.6623581 128.954344,54.9527774 132.190287,47.3740907 Z M141.817615,47.3740907 C145.053065,54.9527774 150.07984,58.6623581 154.334178,58.6623581 C158.600862,58.6623581 161.259947,55.3839402 161.259947,51.7415281 C161.259947,48.1010915 157.542957,44.2043279 157.542957,44.2043279 L156.708783,44.8251431 C158.017088,46.3127289 158.632965,48.6132517 158.632965,49.1239302 C158.632965,49.6311515 158.670994,53.6400274 153.463456,53.6400274 C147.017745,53.6400274 143.083939,46.6060974 143.083939,46.6060974 L141.817615,47.3740907 Z M125.208215,37.1866961 L124.36367,39.7968857 L121.582102,39.7968857 L123.847558,41.4869649 L122.971898,44.1608659 L125.208215,42.5142486 L127.450954,44.1608659 L126.580232,41.4869649 L128.824452,39.7968857 L126.030042,39.7968857 L125.208215,37.1866961 Z M149.459025,37.1866961 L148.613986,39.7968857 L145.835381,39.7968857 L148.104295,41.4869649 L147.223201,44.1608659 L149.459025,42.5142486 L151.699788,44.1608659 L150.829066,41.4869649 L153.079706,39.7968857 L150.287766,39.7968857 L149.459025,37.1866961 Z M137.002223,23.0111689 L135.547727,36.3372115 C135.547727,36.3372115 135.292388,37.7961519 135.292388,39.0032103 C135.292388,40.2152075 136.134958,41.4598012 137.221508,41.4598012 C138.308552,41.4598012 139.070125,40.2715105 139.070125,39.0032103 C139.070125,38.2811484 138.815279,36.7041691 138.815279,36.7041691 L137.002223,23.0111689 Z M140.897998,62.4292296 C140.897998,61.3737944 140.269281,59.7785413 139.714647,58.6371699 C139.078027,57.3372609 138.369794,55.8279441 138.369794,55.8279441 L139.026663,55.085139 C139.026663,55.085139 139.329909,56.1751462 141.016037,58.3487402 C143.660305,61.762483 143.461269,64.7248136 143.461269,64.7248136 C143.461269,68.3904384 139.868739,73.2967058 131.702328,73.2967058 C131.702328,73.2967058 129.886307,73.4596883 126.589616,72.4373435 C112.345438,68.0076764 102,54.7166997 102,39.004198 C102,19.6769419 117.66904,4 137.002223,4 C156.328491,4 172,19.6769419 172,39.004198 C172,58.0356163 156.815957,73.5184608 137.905047,74 C137.905047,74 138.319417,73.9180149 139.001475,73.6142747 C139.686001,73.3100407 140.481158,72.856653 141.466462,72.1331094 C142.461149,71.4080842 142.981211,70.4212992 142.981211,70.4212992 C157.778048,67.6239267 168.973958,54.6218735 168.973958,39.004198 C168.973958,21.3452901 154.66113,7.03246245 137.002223,7.03246245 C119.343315,7.03246245 105.029005,21.3452901 105.029005,39.004198 C105.029005,52.5732328 113.483846,64.1770935 125.412684,68.8151807 C125.412684,68.8151807 128.585904,70.2909132 131.553174,70.2202874 C131.553174,70.2202874 140.897998,70.652438 140.897998,62.4292296 Z" id="Fill-1" fill="#000000" fill-rule="nonzero"></path></g></svg> 